# xmcd
#
# Track frame offsets: 
#        150
#        30111
#        51804
#        72737
#        86478
#        105971
#        123620
#        136545
#        155141
#        169924
#
# Disc length: 2517 seconds
#
# Revision: 0
# Processed by: cddbd v1.5.2PL0 Copyright (c) Steve Scherf et al.
# Submitted via: ExactAudioCopy v0.95b4
#
DISCID=7d09d30a
DTITLE=Chris Webster - Something in the Water
DYEAR=2006
DGENRE=Country
TTITLE0=Something in the Water
TTITLE1=Out Here in the Real World
TTITLE2=Candybars and Freedom (Remix)
TTITLE3=Get Rhythm
TTITLE4=Bright Star
TTITLE5=Where my Shadow Falls
TTITLE6=Tumble Into Love (Remix)
TTITLE7=People Get Ready
TTITLE8=I'm Your Puppet
TTITLE9=Bye Bye Blackbird
EXTD=
EXTT0=
EXTT1=
EXTT2=
EXTT3=
EXTT4=
EXTT5=
EXTT6=
EXTT7=
EXTT8=
EXTT9=
PLAYORDER=
